<svg width="12" height="9" viewBox="0 0 12 9" fill="none" xmlns="http://www.w3.org/2000/svg">
<path fill-rule="evenodd" clip-rule="evenodd" d="M9.75584 8.70646H1.88578C1.08436 8.70646 0.434814 8.05576 0.434814 7.25291V1.54241C0.434814 0.740056 1.08436 0.0888672 1.88578 0.0888672H9.75584C10.5573 0.0888672 11.2068 0.740056 11.2068 1.54241V7.25291C11.2068 8.05576 10.5573 8.70646 9.75584 8.70646ZM1.99751 7.73404H9.6446C10.1031 7.73404 10.1283 7.41232 10.1283 7.24952V2.04098L6.96127 4.99362C6.32526 5.63027 5.29314 5.63027 4.65665 4.99362L1.51385 2.27839V7.24952C1.51385 7.41232 1.73053 7.73404 1.99751 7.73404ZM9.25284 1.16643H2.36509L5.42518 4.22566C5.63702 4.43788 5.9809 4.43788 6.19323 4.22566L9.25284 1.16643Z" fill="white"/>
</svg>
