<svg width="12" height="13" viewBox="0 0 12 13" fill="none" xmlns="http://www.w3.org/2000/svg">
<path fill-rule="evenodd" clip-rule="evenodd" d="M9.34928 12.4245H2.28564C1.25195 12.4245 0.510406 11.6526 0.510406 10.7009V2.65785C0.510406 1.70562 1.25195 0.934326 2.28564 0.934326H9.34928C10.1816 0.934326 11.2824 1.70562 11.2824 2.65785V10.7009C11.2824 11.6526 10.1816 12.4245 9.34928 12.4245ZM9.99573 2.9451C9.99573 2.46869 9.35301 2.08334 8.83648 2.08334H2.59767C2.08114 2.08334 1.6622 2.46869 1.6622 2.9451V10.4137C1.6622 10.8895 2.08114 11.2754 2.59767 11.2754H8.83648C9.35301 11.2754 9.99573 10.8895 9.99573 10.4137V2.9451ZM5.71677 10.7009C5.20023 10.7009 4.84282 10.315 4.84282 9.83917C4.84282 9.36336 5.20023 8.97742 5.71677 8.97742C6.23392 8.97742 6.77594 9.36336 6.77594 9.83917C6.77594 10.315 6.23392 10.7009 5.71677 10.7009Z" fill="white"/>
</svg>
